<svg width="28" height="28" viewBox="0 0 28 28" fill="none" xmlns="http://www.w3.org/2000/svg">
<g clip-path="url(#clip0_7003_2216)">
<path d="M9.625 6.125H7C6.51675 6.125 6.125 6.51675 6.125 7V21C6.125 21.4832 6.51675 21.875 7 21.875H9.625C10.1082 21.875 10.5 21.4832 10.5 21V7C10.5 6.51675 10.1082 6.125 9.625 6.125Z" stroke="#C24E3D" style="stroke:#C24E3D;stroke:color(display-p3 0.7608 0.3059 0.2392);stroke-opacity:1;" stroke-width="1.71094" stroke-linecap="round" stroke-linejoin="round"/>
<path d="M21 6.125H18.375C17.8918 6.125 17.5 6.51675 17.5 7V21C17.5 21.4832 17.8918 21.875 18.375 21.875H21C21.4832 21.875 21.875 21.4832 21.875 21V7C21.875 6.51675 21.4832 6.125 21 6.125Z" stroke="#C24E3D" style="stroke:#C24E3D;stroke:color(display-p3 0.7608 0.3059 0.2392);stroke-opacity:1;" stroke-width="1.71094" stroke-linecap="round" stroke-linejoin="round"/>
<path d="M21.875 8.75H24.5C24.7321 8.75 24.9546 8.84219 25.1187 9.00628C25.2828 9.17038 25.375 9.39294 25.375 9.625V18.375C25.375 18.6071 25.2828 18.8296 25.1187 18.9937C24.9546 19.1578 24.7321 19.25 24.5 19.25H21.875" stroke="#C24E3D" style="stroke:#C24E3D;stroke:color(display-p3 0.7608 0.3059 0.2392);stroke-opacity:1;" stroke-width="1.71094" stroke-linecap="round" stroke-linejoin="round"/>
<path d="M6.125 19.25H3.5C3.26794 19.25 3.04538 19.1578 2.88128 18.9937C2.71719 18.8296 2.625 18.6071 2.625 18.375V9.625C2.625 9.39294 2.71719 9.17038 2.88128 9.00628C3.04538 8.84219 3.26794 8.75 3.5 8.75H6.125" stroke="#C24E3D" style="stroke:#C24E3D;stroke:color(display-p3 0.7608 0.3059 0.2392);stroke-opacity:1;" stroke-width="1.71094" stroke-linecap="round" stroke-linejoin="round"/>
<path d="M10.5 14H17.5" stroke="#C24E3D" style="stroke:#C24E3D;stroke:color(display-p3 0.7608 0.3059 0.2392);stroke-opacity:1;" stroke-width="1.71094" stroke-linecap="round" stroke-linejoin="round"/>
<path d="M25.375 14H27.125" stroke="#C24E3D" style="stroke:#C24E3D;stroke:color(display-p3 0.7608 0.3059 0.2392);stroke-opacity:1;" stroke-width="1.71094" stroke-linecap="round" stroke-linejoin="round"/>
<path d="M0.875 14H2.625" stroke="#C24E3D" style="stroke:#C24E3D;stroke:color(display-p3 0.7608 0.3059 0.2392);stroke-opacity:1;" stroke-width="1.71094" stroke-linecap="round" stroke-linejoin="round"/>
</g>
<defs>
<clipPath id="clip0_7003_2216">
<rect width="28" height="28" fill="white" style="fill:white;fill-opacity:1;"/>
</clipPath>
</defs>
</svg>
