<svg width="28" height="28" viewBox="0 0 28 28" fill="none" xmlns="http://www.w3.org/2000/svg">
<g clip-path="url(#clip0_7007_3759)">
<path d="M16.625 8.75C18.0747 8.75 19.25 7.57475 19.25 6.125C19.25 4.67525 18.0747 3.5 16.625 3.5C15.1753 3.5 14 4.67525 14 6.125C14 7.57475 15.1753 8.75 16.625 8.75Z" stroke="#C24E3D" style="stroke:#C24E3D;stroke:color(display-p3 0.7608 0.3059 0.2392);stroke-opacity:1;" stroke-width="1.71094" stroke-linecap="round" stroke-linejoin="round"/>
<path d="M6.125 11.55C6.125 11.55 9.625 8.74231 14.875 12.3156C20.3952 16.0672 23.625 14.5961 23.625 14.5961" stroke="#C24E3D" style="stroke:#C24E3D;stroke:color(display-p3 0.7608 0.3059 0.2392);stroke-opacity:1;" stroke-width="1.71094" stroke-linecap="round" stroke-linejoin="round"/>
<path d="M12.1013 17.6269C14.0515 18.0469 19.2501 19.6875 19.2501 25.375" stroke="#C24E3D" style="stroke:#C24E3D;stroke:color(display-p3 0.7608 0.3059 0.2392);stroke-opacity:1;" stroke-width="1.71094" stroke-linecap="round" stroke-linejoin="round"/>
<path d="M14.7044 12.1964C14.0405 14.7919 10.8073 22.6056 3.5 21.875" stroke="#C24E3D" style="stroke:#C24E3D;stroke:color(display-p3 0.7608 0.3059 0.2392);stroke-opacity:1;" stroke-width="1.71094" stroke-linecap="round" stroke-linejoin="round"/>
</g>
<defs>
<clipPath id="clip0_7007_3759">
<rect width="28" height="28" fill="white" style="fill:white;fill-opacity:1;"/>
</clipPath>
</defs>
</svg>
