<svg width="28" height="28" viewBox="0 0 28 28" fill="none" xmlns="http://www.w3.org/2000/svg">
<path d="M6.59502 1.42896H6.51299C6.40908 1.43716 6.31611 1.46997 6.23408 1.51646C6.06455 1.60997 5.92236 1.78442 5.85127 1.9906C5.78017 2.19677 5.78564 2.42099 5.85674 2.59981C5.9333 2.7781 6.06455 2.93013 6.35986 3.03349H6.36533L11.32 4.77364C11.6099 4.87591 11.8067 4.83817 11.9763 4.74411C12.1403 4.6495 12.2825 4.47341 12.3536 4.2656C12.4302 4.05778 12.4302 3.83138 12.3536 3.65255C12.2825 3.47372 12.1513 3.32278 11.856 3.21942L6.89033 1.4913C6.78096 1.45247 6.68252 1.43333 6.59502 1.42896ZM2.26978 3.58802H2.20963C2.15603 3.59349 2.10189 3.60005 2.04885 3.61317C1.83666 3.66567 1.64908 3.78927 1.53916 3.94896C1.42978 4.1081 1.374 4.30005 1.44947 4.60466L2.70728 9.707C2.78166 10.0078 2.92002 10.15 3.0901 10.2429C3.26072 10.3304 3.48439 10.3523 3.69658 10.3031C3.90932 10.2484 4.09744 10.1226 4.20736 9.96403C4.31783 9.80544 4.37361 9.61403 4.29924 9.30778L3.04033 4.21419C2.96541 3.90958 2.82705 3.76575 2.65588 3.67552C2.54377 3.61646 2.40869 3.58692 2.26978 3.58802ZM13.3927 3.99544C13.3872 4.19888 13.3489 4.39958 13.2833 4.58935C13.2395 4.71185 13.1849 4.83106 13.1192 4.94372C14.3005 5.30356 15.9302 5.84606 17.62 6.557C20.8849 7.93513 24.3083 9.99685 25.1505 12.25C25.7794 13.9398 25.7356 16.264 25.0794 18.2984C24.4286 20.3328 23.1872 22.039 21.563 22.6679C20.9942 22.8867 20.327 22.9961 19.6052 23.0289C20.0864 21.864 20.2177 20.4914 20.0591 19.1515C19.8239 17.1554 18.9653 15.1976 17.4833 14.1258C16.1817 13.1851 14.1583 12.95 12.3481 13.2562C11.4403 13.4093 10.5817 13.7047 9.89268 14.1804C9.20908 14.6508 8.68408 15.3289 8.5583 16.1711C8.36143 17.5218 8.85361 18.8015 9.71768 19.8789C10.5872 20.9562 11.8286 21.864 13.2286 22.564C14.6724 23.2804 16.2802 23.7781 17.8333 23.9695C16.4935 25.2875 14.2786 25.7633 11.9872 25.5281C9.65205 25.2929 7.27861 24.314 5.84033 22.9414C4.35338 21.525 3.85299 18.107 3.85408 15.0445C3.85408 13.6062 3.94814 12.2554 4.04713 11.2273C4.00939 11.2383 3.97111 11.2492 3.93283 11.2601C3.64846 11.3312 3.34603 11.3422 3.054 11.2765C2.95721 12.3101 2.87025 13.6281 2.86971 15.039C2.86971 18.1945 3.22135 21.8093 5.15947 23.6523C6.81377 25.2273 9.35127 26.25 11.8888 26.507C14.4263 26.7695 17.0021 26.2609 18.6317 24.5656C18.7849 24.407 18.927 24.232 19.0583 24.0461C20.081 24.057 21.0599 23.9148 21.913 23.5867C23.931 22.8101 25.3036 20.825 26.02 18.5992C26.731 16.3734 26.802 13.8797 26.0692 11.9109C25.0138 9.06169 21.3497 7.06013 18.0028 5.64919C16.2638 4.91638 14.5958 4.36185 13.3927 3.99544ZM13.7372 14.1258C14.9786 14.1258 16.1927 14.4101 16.9036 14.9242C18.0575 15.7609 18.8724 17.4836 19.0802 19.2718C19.2388 20.6226 19.0528 21.9898 18.5278 23.0125C16.9364 22.9031 15.1864 22.4383 13.6661 21.6781C12.3645 21.0328 11.2325 20.1906 10.4888 19.2609C9.73955 18.3367 9.38408 17.3468 9.53174 16.3133C9.6083 15.7828 9.92549 15.3508 10.4505 14.9898C10.981 14.6289 11.7138 14.3609 12.5122 14.2297C12.9114 14.1586 13.3271 14.1258 13.7372 14.1258Z" fill="#C24E3D" style="fill:#C24E3D;fill:color(display-p3 0.7608 0.3059 0.2392);fill-opacity:1;"/>
</svg>
