<svg width="38" height="38" viewBox="0 0 38 38" fill="none" xmlns="http://www.w3.org/2000/svg">
<rect width="38" height="38" rx="19" fill="black" style="fill:black;fill-opacity:1;"/>
<path d="M14.4501 9H23.5501C27.0168 9 29.8334 11.6 29.8334 14.8V23.2C29.8334 24.7383 29.1714 26.2135 27.9931 27.3012C26.8147 28.3889 25.2165 29 23.5501 29H14.4501C10.9834 29 8.16675 26.4 8.16675 23.2V14.8C8.16675 13.2617 8.82874 11.7865 10.0071 10.6988C11.1854 9.61107 12.7836 9 14.4501 9ZM14.2334 11C13.1991 11 12.2071 11.3793 11.4757 12.0544C10.7443 12.7295 10.3334 13.6452 10.3334 14.6V23.4C10.3334 25.39 12.0776 27 14.2334 27H23.7667C24.8011 27 25.7931 26.6207 26.5245 25.9456C27.2559 25.2705 27.6667 24.3548 27.6667 23.4V14.6C27.6667 12.61 25.9226 11 23.7667 11H14.2334ZM24.6876 12.5C25.0467 12.5 25.3912 12.6317 25.6451 12.8661C25.8991 13.1005 26.0417 13.4185 26.0417 13.75C26.0417 14.0815 25.8991 14.3995 25.6451 14.6339C25.3912 14.8683 25.0467 15 24.6876 15C24.3284 15 23.984 14.8683 23.73 14.6339C23.4761 14.3995 23.3334 14.0815 23.3334 13.75C23.3334 13.4185 23.4761 13.1005 23.73 12.8661C23.984 12.6317 24.3284 12.5 24.6876 12.5ZM19.0001 14C20.4367 14 21.8144 14.5268 22.8302 15.4645C23.8461 16.4021 24.4167 17.6739 24.4167 19C24.4167 20.3261 23.8461 21.5979 22.8302 22.5355C21.8144 23.4732 20.4367 24 19.0001 24C17.5635 24 16.1857 23.4732 15.1699 22.5355C14.1541 21.5979 13.5834 20.3261 13.5834 19C13.5834 17.6739 14.1541 16.4021 15.1699 15.4645C16.1857 14.5268 17.5635 14 19.0001 14ZM19.0001 16C18.1381 16 17.3115 16.3161 16.702 16.8787C16.0925 17.4413 15.7501 18.2044 15.7501 19C15.7501 19.7956 16.0925 20.5587 16.702 21.1213C17.3115 21.6839 18.1381 22 19.0001 22C19.862 22 20.6887 21.6839 21.2982 21.1213C21.9077 20.5587 22.2501 19.7956 22.2501 19C22.2501 18.2044 21.9077 17.4413 21.2982 16.8787C20.6887 16.3161 19.862 16 19.0001 16Z" fill="#C24E3D" style="fill:#C24E3D;fill:color(display-p3 0.7608 0.3059 0.2392);fill-opacity:1;"/>
</svg>
