<svg width="38" height="38" viewBox="0 0 38 38" fill="none" xmlns="http://www.w3.org/2000/svg">
<rect width="38" height="38" rx="19" fill="black" style="fill:black;fill-opacity:1;"/>
<g clip-path="url(#clip0_7003_2428)">
<path d="M19.0001 11C19.9263 11 20.8764 11.022 21.7972 11.058L22.8849 11.106L23.926 11.163L24.901 11.224L25.7915 11.288C26.7579 11.3563 27.6672 11.7369 28.3596 12.363C29.0519 12.9891 29.4829 13.8205 29.5767 14.711L29.62 15.136L29.7012 16.046C29.7771 16.989 29.8334 18.017 29.8334 19C29.8334 19.983 29.7771 21.011 29.7012 21.954L29.62 22.864C29.6059 23.01 29.5918 23.151 29.5767 23.289C29.4828 24.1796 29.0517 25.0112 28.3592 25.6373C27.6666 26.2634 26.757 26.6439 25.7904 26.712L24.9021 26.775L23.9271 26.837L22.8849 26.894L21.7972 26.942C20.8654 26.9794 19.9328 26.9987 19.0001 27C18.0674 26.9987 17.1348 26.9794 16.2029 26.942L15.1152 26.894L14.0742 26.837L13.0992 26.775L12.2087 26.712C11.2423 26.6437 10.3329 26.2631 9.64059 25.637C8.94826 25.0109 8.51729 24.1795 8.4235 23.289L8.38016 22.864L8.29891 21.954C8.21608 20.9711 8.172 19.9858 8.16675 19C8.16675 18.017 8.22308 16.989 8.29891 16.046L8.38016 15.136C8.39425 14.99 8.40833 14.849 8.4235 14.711C8.51725 13.8207 8.94807 12.9894 9.64018 12.3633C10.3323 11.7373 11.2414 11.3565 12.2076 11.288L13.097 11.224L14.072 11.163L15.1142 11.106L16.2018 11.058C17.134 11.0206 18.067 11.0013 19.0001 11ZM19.0001 13C18.1063 13 17.1866 13.022 16.2917 13.056L15.2322 13.103L14.215 13.158L13.2595 13.218L12.3842 13.281C11.9241 13.3111 11.4905 13.4906 11.1601 13.7877C10.8297 14.0848 10.624 14.4803 10.5793 14.904C10.4526 16.113 10.3334 17.618 10.3334 19C10.3334 20.382 10.4526 21.887 10.5793 23.096C10.6714 23.968 11.4211 24.646 12.3842 24.719L13.2595 24.781L14.215 24.841L15.2322 24.897L16.2917 24.944C17.1866 24.978 18.1063 25 19.0001 25C19.8938 25 20.8136 24.978 21.7084 24.944L22.7679 24.897L23.7852 24.842L24.7407 24.782L25.616 24.719C26.0761 24.6889 26.5097 24.5094 26.8401 24.2123C27.1704 23.9152 27.3762 23.5197 27.4208 23.096C27.5476 21.887 27.6667 20.382 27.6667 19C27.6667 17.618 27.5476 16.113 27.4208 14.904C27.3762 14.4803 27.1704 14.0848 26.8401 13.7877C26.5097 13.4906 26.0761 13.3111 25.616 13.281L24.7407 13.219L23.7852 13.159L22.7679 13.103L21.7084 13.056C20.8061 13.0202 19.9032 13.0015 19.0001 13ZM16.8334 16.575C16.8333 16.4773 16.8591 16.381 16.9086 16.2946C16.958 16.2081 17.0295 16.1341 17.117 16.079C17.2044 16.0239 17.3051 15.9894 17.4104 15.9784C17.5156 15.9674 17.6221 15.9803 17.7207 16.016L17.8084 16.056L22.3584 18.48C22.449 18.5283 22.5257 18.596 22.5819 18.6774C22.638 18.7589 22.6721 18.8517 22.6811 18.9478C22.6902 19.044 22.6739 19.1408 22.6338 19.23C22.5936 19.3192 22.5308 19.3981 22.4505 19.46L22.3584 19.52L17.8084 21.945C17.7167 21.994 17.6134 22.0216 17.5076 22.0253C17.4017 22.0291 17.2964 22.0089 17.2009 21.9665C17.1055 21.9241 17.0227 21.8608 16.9597 21.7821C16.8968 21.7034 16.8557 21.6117 16.8399 21.515L16.8334 21.425V16.575Z" fill="#C24E3D" style="fill:#C24E3D;fill:color(display-p3 0.7608 0.3059 0.2392);fill-opacity:1;"/>
</g>
<defs>
<clipPath id="clip0_7003_2428">
<rect width="26" height="24" fill="white" style="fill:white;fill-opacity:1;" transform="translate(6 7)"/>
</clipPath>
</defs>
</svg>
