<svg xmlns="http://www.w3.org/2000/svg" fill="none" viewBox="0 0 28 28">
  <g stroke="#fff" stroke-linecap="round" stroke-linejoin="round" stroke-width="1.711"
    clip-path="url(#a)">
    <path
      d="M9.625 6.125H7A.875.875 0 0 0 6.125 7v14c0 .483.392.875.875.875h2.625A.875.875 0 0 0 10.5 21V7a.875.875 0 0 0-.875-.875ZM21 6.125h-2.625A.875.875 0 0 0 17.5 7v14c0 .483.392.875.875.875H21a.875.875 0 0 0 .875-.875V7A.875.875 0 0 0 21 6.125ZM21.875 8.75H24.5a.875.875 0 0 1 .875.875v8.75a.875.875 0 0 1-.875.875h-2.625M6.125 19.25H3.5a.875.875 0 0 1-.875-.875v-8.75A.875.875 0 0 1 3.5 8.75h2.625M10.5 14h7M25.375 14h1.75M.875 14h1.75" />
  </g>
  <defs>
    <clipPath id="a">
      <path fill="#fff" d="M0 0h28v28H0z" />
    </clipPath>
  </defs>
</svg>